# xmcd
#
# Track frame offsets:
# 150
# 18550
# 29867
# 41787
# 54615
# 67407
# 83642
# 100502
# 111048
# 121947
# 131701
#
# Disc length: 1926 seconds
#
#
# Revision: 0
# Processed by: cddbd v1.5.1PL0 Copyright (c) Steve Scherf et al.
# Submitted via: FreeRIP 2.51 
#
DISCID=9c07840b
DTITLE=Pure Prairie League - Two Lane Highway
DYEAR=1975
DGENRE=
TTITLE0=Two Lane Highway
TTITLE1=Kentucky Moonshine
TTITLE2=Runner
TTITLE3=Memories
TTITLE4=Kansas City Southern
TTITLE5=Harvest
TTITLE6=Sister's Keeper
TTITLE7=Just Can't Believe It
TTITLE8=Give Us a Rise
TTITLE9=I'll Change Your Flat Tire, Merle
TTITLE10=Pickin' to Beat the Devil
EXTD=
EXTT0=
EXTT1=
EXTT2=
EXTT3=
EXTT4=
EXTT5=
EXTT6=
EXTT7=
EXTT8=
EXTT9=
EXTT10=
PLAYORDER=
